<?xml version="1.0" encoding="UTF-8"?>
<svg version="1.1" xmlns="http://www.w3.org/2000/svg" width="120" height="24">
<path d="M0 0 C0.66 0 1.32 0 2 0 C3.65 3.96 5.3 7.92 7 12 C7.99 11.67 8.98 11.34 10 11 C9.01 10.34 8.02 9.68 7 9 C7.75 4.25 7.75 4.25 10 2 C12.24658203 1.77294922 12.24658203 1.77294922 15.0078125 1.8046875 C15.99394531 1.81113281 16.98007813 1.81757813 17.99609375 1.82421875 C19.02863281 1.84097656 20.06117187 1.85773437 21.125 1.875 C22.16527344 1.88402344 23.20554687 1.89304688 24.27734375 1.90234375 C26.85179092 1.92596253 29.42578212 1.95889851 32 2 C29.28271484 5.92382812 29.28271484 5.92382812 26.73828125 6.609375 C25.93777344 6.65578125 25.13726562 6.7021875 24.3125 6.75 C23.50425781 6.80671875 22.69601563 6.8634375 21.86328125 6.921875 C21.24839844 6.94765625 20.63351563 6.9734375 20 7 C21.98 7.66 23.96 8.32 26 9 C26.1875 11.875 26.1875 11.875 26 15 C22.96474514 17.02350324 21.80573798 17.32124018 18.3125 17.625 C17.50425781 17.69976563 16.69601563 17.77453125 15.86328125 17.8515625 C14.94095703 17.92503906 14.94095703 17.92503906 14 18 C14 18.33 14 18.66 14 19 C13.09161377 18.98952637 12.18322754 18.97905273 11.24731445 18.96826172 C-4.7936809 18.80895081 -20.79894303 18.74727772 -36.8125 19.8125 C-37.94067139 19.88259277 -39.06884277 19.95268555 -40.23120117 20.02490234 C-47.35854551 20.55512723 -54.14899572 21.75913305 -61.1081543 23.38549805 C-64 24 -64 24 -67 24 C-67 23.34 -67 22.68 -67 22 C-73.6 22.33 -80.2 22.66 -87 23 C-86.34 22.67 -85.68 22.34 -85 22 C-84.37904872 19.9215009 -84.37904872 19.9215009 -84 17.4375 C-83.17667654 12.89615236 -82.15811973 8.46703325 -81 4 C-81.99 3.67 -82.98 3.34 -84 3 C-84 2.67 -84 2.34 -84 2 C-80.04 2 -76.08 2 -72 2 C-72 2.99 -72 3.98 -72 5 C-71.03513672 4.26330078 -71.03513672 4.26330078 -70.05078125 3.51171875 C-65.9743774 1.49178496 -62.66166443 1.66623645 -58.1875 1.8125 C-57.39923828 1.82603516 -56.61097656 1.83957031 -55.79882812 1.85351562 C-53.86558831 1.88866544 -51.93270318 1.94246639 -50 2 C-49.505 2.99 -49.505 2.99 -49 4 C-48.34 3.34 -47.68 2.68 -47 2 C-44.29651702 1.8543382 -41.69894879 1.81366025 -39 1.875 C-37.89398438 1.88853516 -37.89398438 1.88853516 -36.765625 1.90234375 C-34.84363114 1.92689477 -32.92178918 1.96272392 -31 2 C-30.34 2 -29.68 2 -29 2 C-26 2 -23 2 -20 2 C-19.01 4.97 -19.01 4.97 -18 8 C-17.34 8 -16.68 8 -16 8 C-15.67 6.02 -15.34 4.04 -15 2 C-12.69 2 -10.38 2 -8 2 C-8.66 5.3 -9.32 8.6 -10 12 C-8.95199219 10.700625 -8.95199219 10.700625 -7.8828125 9.375 C-6.96385408 8.24974479 -6.04456616 7.12475861 -5.125 6 C-4.66480469 5.42765625 -4.20460938 4.8553125 -3.73046875 4.265625 C-2.53150078 2.80601181 -1.26958455 1.3986243 0 0 Z M-62.5625 5.5 C-63.38878906 5.9640625 -64.21507812 6.428125 -65.06640625 6.90625 C-65.70449219 7.2671875 -66.34257813 7.628125 -67 8 C-65.63760782 10.84223197 -64.44766831 12.96027641 -62 15 C-61.34 15 -60.68 15 -60 15 C-59.01 11.04 -58.02 7.08 -57 3 C-58.9967878 3 -60.87577422 4.54973196 -62.5625 5.5 Z M-51 6 C-50 8 -50 8 -50 8 Z M-43 6 C-43.66 7.98 -44.32 9.96 -45 12 C-42.69 12 -40.38 12 -38 12 C-37.67 10.02 -37.34 8.04 -37 6 C-38.98 6 -40.96 6 -43 6 Z M-31 8 C-30 10 -30 10 -30 10 Z M-52 9 C-51 12 -51 12 -51 12 Z M-24 10 C-24.33 11.98 -24.66 13.96 -25 16 C-23.35 16 -21.7 16 -20 16 C-20.99 14.02 -21.98 12.04 -23 10 C-23.33 10 -23.66 10 -24 10 Z M-2 10 C-2.33 10.66 -2.66 11.32 -3 12 C-2.01 12 -1.02 12 0 12 C0 11.34 0 10.68 0 10 C-0.66 10 -1.32 10 -2 10 Z M-75 13 C-75.66 14.98 -76.32 16.96 -77 19 C-74.36 18.67 -71.72 18.34 -69 18 C-70.28062485 16.2925002 -71.61767557 14.62626404 -73 13 C-73.66 13 -74.32 13 -75 13 Z M-53 13 C-53.33 14.32 -53.66 15.64 -54 17 C-51.36 17 -48.72 17 -46 17 C-46.8971875 16.566875 -46.8971875 16.566875 -47.8125 16.125 C-50 15 -50 15 -53 13 Z M-33 14 C-33.33 14.66 -33.66 15.32 -34 16 C-33.34 16 -32.68 16 -32 16 C-32.33 15.34 -32.66 14.68 -33 14 Z " fill="#000000" transform="translate(87,0)"/>
<path d="M0 0 C0.66 0 1.32 0 2 0 C3.65 3.96 5.3 7.92 7 12 C7.99 11.67 8.98 11.34 10 11 C9.01 10.34 8.02 9.68 7 9 C7.75 4.25 7.75 4.25 10 2 C12.24658203 1.77294922 12.24658203 1.77294922 15.0078125 1.8046875 C15.99394531 1.81113281 16.98007813 1.81757813 17.99609375 1.82421875 C19.54490234 1.84935547 19.54490234 1.84935547 21.125 1.875 C22.16527344 1.88402344 23.20554688 1.89304688 24.27734375 1.90234375 C26.85179092 1.92596253 29.42578212 1.95889851 32 2 C29.28271484 5.92382812 29.28271484 5.92382812 26.73828125 6.609375 C25.93777344 6.65578125 25.13726562 6.7021875 24.3125 6.75 C23.50425781 6.80671875 22.69601563 6.8634375 21.86328125 6.921875 C21.24839844 6.94765625 20.63351563 6.9734375 20 7 C21.98 7.66 23.96 8.32 26 9 C26.1875 11.875 26.1875 11.875 26 15 C22.96474514 17.02350324 21.80573798 17.32124018 18.3125 17.625 C17.50425781 17.69976563 16.69601563 17.77453125 15.86328125 17.8515625 C14.94095703 17.92503906 14.94095703 17.92503906 14 18 C14 18.33 14 18.66 14 19 C5.09 18.67 -3.82 18.34 -13 18 C-13 17.01 -13 16.02 -13 15 C-12.34 15 -11.68 15 -11 15 C-10.64421875 14.18789063 -10.64421875 14.18789063 -10.28125 13.359375 C-8.65652243 10.36749863 -6.6498123 7.88840601 -4.5 5.25 C-3.7059375 4.26515625 -2.911875 3.2803125 -2.09375 2.265625 C-1.4028125 1.51796875 -0.711875 0.7703125 0 0 Z M-2 10 C-2.33 10.66 -2.66 11.32 -3 12 C-2.01 12 -1.02 12 0 12 C0 11.34 0 10.68 0 10 C-0.66 10 -1.32 10 -2 10 Z " fill="#010000" transform="translate(87,0)"/>
<path d="M0 0 C0.66 0 1.32 0 2 0 C2.83919398 2.26882087 3.67151724 4.53977027 4.5 6.8125 C4.73847656 7.45509766 4.97695312 8.09769531 5.22265625 8.75976562 C6.27068746 11.64933739 7 13.90076061 7 17 C0.73 17 -5.54 17 -12 17 C-10.1680569 12.42014226 -8.12293886 9.35918383 -5 5.6875 C-4.54882812 5.13771484 -4.09765625 4.58792969 -3.6328125 4.02148438 C-2.47111357 2.63810029 -1.24017305 1.31349409 0 0 Z M-2 10 C-2.33 10.66 -2.66 11.32 -3 12 C-2.01 12 -1.02 12 0 12 C0 11.34 0 10.68 0 10 C-0.66 10 -1.32 10 -2 10 Z " fill="#ED0314" transform="translate(87,0)"/>
<path d="M0 0 C0.33 0.66 0.66 1.32 1 2 C1.86165771 1.9388501 1.86165771 1.9388501 2.74072266 1.87646484 C5.3681398 1.69699791 7.9963808 1.53586126 10.625 1.375 C11.52863281 1.31054688 12.43226562 1.24609375 13.36328125 1.1796875 C18.39566926 0.88582543 22.27190317 0.94225686 27 3 C27 3.33 27 3.66 27 4 C18.09 3.67 9.18 3.34 0 3 C0 2.01 0 1.02 0 0 Z " fill="#1A0707" transform="translate(74,15)"/>
</svg>
